<svg width="87" height="87" viewBox="0 0 87 87" fill="none" xmlns="http://www.w3.org/2000/svg">
<path d="M38.5 0L0 38.5V86.5L86.5 0H38.5Z" fill="#00B359"/>
<path d="M9.15829 61.6748L3.25765 55.5132L5.41588 53.4464C6.16351 52.7304 6.86836 52.3313 7.53045 52.2489C8.18983 52.1637 8.7843 52.3976 9.31384 52.9505C9.60293 53.2524 9.78066 53.5933 9.84704 53.9732C9.91072 54.3504 9.85565 54.7249 9.68184 55.0969C10.0735 54.8733 10.4744 54.7949 10.8846 54.8618C11.2976 54.926 11.6703 55.1316 12.0026 55.4786C12.57 56.0711 12.8105 56.7007 12.7243 57.3674C12.638 58.0341 12.2478 58.7053 11.5535 59.381L9.15829 61.6748ZM7.85847 57.776L9.45116 59.4391L10.5387 58.3976C10.8378 58.1112 11.003 57.8178 11.0344 57.5173C11.0658 57.2113 10.9614 56.9328 10.7209 56.6817C10.1805 56.1175 9.61432 56.1107 9.02222 56.6615L7.85847 57.776ZM6.99931 56.8789L7.93878 55.9792C8.56839 55.3546 8.64408 54.7926 8.16587 54.2933C7.8984 54.014 7.62476 53.892 7.34495 53.9274C7.06527 53.9573 6.75051 54.1397 6.40067 54.4747L5.51199 55.3258L6.99931 56.8789ZM15.8434 50.1535L13.4059 52.4879L14.9864 54.1383L17.8471 51.3987L18.8238 52.4186L14.6935 56.3739L8.79288 50.2124L12.9147 46.2651L13.8995 47.2935L11.0472 50.0249L12.4535 51.4934L14.891 49.1591L15.8434 50.1535ZM21.2155 47.029C20.9859 46.7892 20.7256 46.6869 20.4348 46.722C20.1412 46.7543 19.7068 46.9107 19.1316 47.1911C18.5537 47.4687 18.0702 47.6613 17.6811 47.7689C16.6194 48.0609 15.7819 47.8867 15.1686 47.2463C14.8498 46.9134 14.6592 46.528 14.5969 46.0902C14.5346 45.6468 14.6082 45.1842 14.8175 44.7025C15.0297 44.2181 15.3544 43.7665 15.7917 43.3477C16.2318 42.9262 16.7009 42.6311 17.1991 42.4623C17.6946 42.2906 18.176 42.2596 18.6433 42.3692C19.1134 42.476 19.5255 42.7143 19.8794 43.0839L18.6098 44.2996C18.3397 44.0175 18.0414 43.884 17.7151 43.899C17.386 43.9112 17.0607 44.0714 16.7391 44.3794C16.4288 44.6766 16.251 44.9739 16.2059 45.2713C16.1581 45.5658 16.2369 45.8203 16.4422 46.0348C16.634 46.2351 16.8949 46.307 17.2249 46.2506C17.5578 46.1915 17.977 46.0334 18.4826 45.7764C19.4129 45.3019 20.197 45.0675 20.8351 45.073C21.4732 45.0785 22.0219 45.3211 22.4812 45.8007C22.9918 46.3339 23.1913 46.946 23.0797 47.6371C22.9653 48.3253 22.5668 48.9963 21.8841 49.6501C21.4101 50.104 20.896 50.4314 20.3419 50.6321C19.7851 50.83 19.2591 50.8767 18.7641 50.772C18.2719 50.6647 17.8353 50.4121 17.4543 50.0143L18.7281 48.7945C19.3792 49.4744 20.1111 49.4253 20.9236 48.6472C21.2254 48.3581 21.4029 48.0719 21.456 47.7884C21.5064 47.5022 21.4263 47.249 21.2155 47.029ZM24.6229 37.0241L22.7355 38.8315L27.6514 43.9648L26.3818 45.1805L21.466 40.0473L19.604 41.8305L18.6192 40.8022L23.6381 35.9957L24.6229 37.0241ZM33.8179 34.9602C33.5883 34.7204 33.328 34.6181 33.0372 34.6533C32.7436 34.6856 32.3092 34.842 31.734 35.1224C31.1561 35.4 30.6726 35.5926 30.2835 35.7002C29.2218 35.9922 28.3843 35.818 27.771 35.1775C27.4522 34.8446 27.2616 34.4593 27.1992 34.0214C27.137 33.578 27.2106 33.1154 27.4199 32.6337C27.6321 32.1493 27.9568 31.6977 28.3941 31.2789C28.8342 30.8575 29.3033 30.5623 29.8015 30.3935C30.297 30.2219 30.7784 30.1909 31.2457 30.3004C31.7158 30.4073 32.1279 30.6455 32.4818 31.0151L31.2122 32.2309C30.9421 31.9488 30.6438 31.8152 30.3175 31.8303C29.9884 31.8425 29.6631 32.0026 29.3415 32.3106C29.0312 32.6078 28.8534 32.9051 28.8083 33.2025C28.7605 33.4971 28.8393 33.7516 29.0446 33.966C29.2364 34.1663 29.4973 34.2382 29.8273 34.1818C30.1601 34.1227 30.5794 33.9647 31.085 33.7076C32.0152 33.2332 32.7994 32.9987 33.4375 33.0042C34.0756 33.0098 34.6243 33.2523 35.0836 33.7319C35.5942 34.2651 35.7937 34.8773 35.6821 35.5683C35.5677 36.2565 35.1692 36.9275 34.4864 37.5814C34.0125 38.0353 33.4984 38.3626 32.9443 38.5633C32.3875 38.7613 31.8615 38.8079 31.3665 38.7033C30.8743 38.5959 30.4377 38.3434 30.0567 37.9456L31.3305 36.7257C31.9816 37.4056 32.7135 37.3565 33.526 36.5784C33.8278 36.2893 34.0053 36.0031 34.0584 35.7197C34.1088 35.4334 34.0286 35.1803 33.8179 34.9602ZM38.653 28.3098L36.2154 30.6441L37.796 32.2945L40.6567 29.555L41.6334 30.5748L37.5031 34.5302L31.6024 28.3687L35.7242 24.4214L36.709 25.4497L33.8568 28.1812L35.2631 29.6496L37.7006 27.3153L38.653 28.3098ZM42.671 27.6259L45.3667 25.0444L46.3434 26.0642L42.3782 29.8616L36.4775 23.7L37.7471 22.4842L42.671 27.6259ZM47.3683 23.1275L50.064 20.5459L51.0407 21.5658L47.0755 25.3631L41.1748 19.2016L42.4444 17.9858L47.3683 23.1275ZM52.9227 14.6443L50.4851 16.9786L52.0657 18.629L54.9264 15.8895L55.9031 16.9093L51.7728 20.8647L45.8722 14.7032L49.994 10.7559L50.9788 11.7842L48.1265 14.5157L49.5328 15.9841L51.9703 13.6498L52.9227 14.6443ZM56.7688 11.7561L55.7574 12.7247L57.9174 14.9803L56.6479 16.1961L50.7472 10.0345L53.0367 7.84204C53.7645 7.14498 54.4813 6.76955 55.187 6.71575C55.8927 6.66194 56.5292 6.93127 57.0965 7.52372C57.4991 7.94408 57.7438 8.38313 57.8306 8.84087C57.9175 9.29308 57.8559 9.77938 57.6457 10.2998L61.39 11.5411L61.4468 11.6004L60.0841 12.9053L56.7688 11.7561ZM54.7726 11.6964L55.7967 10.7156C56.1155 10.4103 56.2853 10.0935 56.3063 9.7652C56.3245 9.43406 56.1971 9.12602 55.9243 8.84108C55.646 8.55049 55.3439 8.40168 55.0181 8.39463C54.695 8.38488 54.3628 8.54346 54.0215 8.87037L53.0016 9.84706L54.7726 11.6964ZM61.5353 7.8891L60.5197 8.86174L56.2867 4.72961L57.5901 3.4814L61.5353 7.8891ZM61.6678 9.04405C61.8738 8.84682 62.0969 8.74942 62.3372 8.75186C62.5804 8.75159 62.7924 8.84597 62.9734 9.03499C63.1518 9.22119 63.2355 9.43574 63.2248 9.67863C63.2168 9.91882 63.1098 10.1375 62.9039 10.3348C62.7008 10.5293 62.4776 10.6267 62.2345 10.6269C61.9942 10.6245 61.7849 10.5302 61.6066 10.344C61.4283 10.1578 61.3431 9.9446 61.351 9.70441C61.3591 9.4587 61.4647 9.23858 61.6678 9.04405Z" fill="white"/>
</svg>
